<svg width="740" height="740" viewBox="0 0 740 740" fill="none" xmlns="http://www.w3.org/2000/svg">
<g clip-path="url(#clip0_471_2)">
<rect width="740" height="740" fill="white"/>
<path d="M0 0H740V740H0V0Z" fill="#022140"/>
<path d="M319.039 303.921L385.767 342C386.762 340.008 374.417 326.969 364 319.5C353.583 312.031 323.725 293.519 323.725 293.519C312.799 288.064 303.5 281 299 272C294.5 263 294.5 251.5 282 234.5C273.063 222.346 269.559 219.664 266.436 223.825C238.233 265.808 233.101 292.479 258.102 311.723C285.369 328.701 298.551 326.069 319.039 303.921Z" fill="#37946E"/>
<path d="M740.5 -0.5V740.5H-0.5V-0.5H740.5Z" stroke="#37946E"/>
<path d="M191.497 327.68L187.234 330.293L187.241 330.304L191.497 327.68ZM176.162 270.451L171.163 270.378L171.163 270.391L176.162 270.451ZM301.067 137.899L300.911 142.896L300.922 142.897L301.067 137.899ZM412.624 215.702L407.909 217.367L407.914 217.38L407.918 217.393L412.624 215.702ZM418.232 253.361L413.237 253.135L413.236 253.153L413.236 253.171L418.232 253.361ZM408.943 292.653L406.443 296.983L411.293 299.783L413.528 294.648L408.943 292.653ZM350.474 258.896L345.786 257.156L344.317 261.114L347.974 263.226L350.474 258.896ZM353.662 243.061L348.666 242.855L348.665 242.902L348.664 242.948L353.662 243.061ZM344.089 216.137L340.26 219.352L340.303 219.403L340.348 219.454L344.089 216.137ZM303.973 198.93L303.586 193.945L303.569 193.946L303.553 193.947L303.973 198.93ZM278.042 210.006L281.148 213.924L281.156 213.918L281.163 213.912L278.042 210.006ZM242.211 271.744L237.272 270.965L237.268 270.989L237.265 271.013L242.211 271.744ZM295.112 326.103L296.02 331.02L296.062 331.012L296.103 331.004L295.112 326.103ZM308.647 320.707L306.05 316.434L306.032 316.445L306.014 316.456L308.647 320.707ZM320.825 310.248L323.325 305.918L319.749 303.853L317.045 306.975L320.825 310.248ZM379.295 344.006L383.293 347.008L386.682 342.497L381.795 339.675L379.295 344.006ZM349.912 371.696L352.589 375.918L352.597 375.913L352.605 375.908L349.912 371.696ZM275.543 385.135L274.59 390.043L274.602 390.046L274.614 390.048L275.543 385.135ZM235.679 369.748L238.179 365.418C219.95 354.894 205.852 341.435 195.753 325.056L191.497 327.68L187.241 330.304C198.281 348.209 213.637 362.796 233.179 374.078L235.679 369.748ZM191.497 327.68L195.759 325.067C185.801 308.824 180.919 290.683 181.162 270.511L176.162 270.451L171.163 270.391C170.898 292.348 176.239 312.359 187.234 330.293L191.497 327.68ZM176.162 270.451L181.162 270.524C181.454 250.41 187.907 229.171 200.853 206.747L196.523 204.247L192.193 201.747C178.607 225.28 171.485 248.177 171.163 270.378L176.162 270.451ZM196.523 204.247L200.853 206.747C213.911 184.13 229.133 167.833 246.401 157.526L243.838 153.233L241.275 148.94C222.205 160.323 205.883 178.035 192.193 201.747L196.523 204.247ZM243.838 153.233L246.401 157.526C263.8 147.141 281.939 142.306 300.911 142.896L301.067 137.899L301.223 132.901C280.228 132.248 260.215 137.635 241.275 148.94L243.838 153.233ZM301.067 137.899L300.922 142.897C320.157 143.453 338.862 148.933 357.09 159.458L359.59 155.128L362.09 150.797C342.548 139.515 322.238 133.509 301.212 132.901L301.067 137.899ZM359.59 155.128L357.09 159.458C369.966 166.892 380.618 175.562 389.116 185.439L392.907 182.177L396.697 178.916C387.379 168.088 375.82 158.725 362.09 150.797L359.59 155.128ZM392.907 182.177L389.116 185.439C397.65 195.356 403.893 205.996 407.909 217.367L412.624 215.702L417.338 214.037C412.88 201.413 405.979 189.704 396.697 178.916L392.907 182.177ZM412.624 215.702L407.918 217.393C412.023 228.817 413.799 240.718 413.237 253.135L418.232 253.361L423.227 253.587C423.847 239.894 421.884 226.689 417.329 214.012L412.624 215.702ZM418.232 253.361L413.236 253.171C412.763 265.605 409.826 278.093 404.359 290.658L408.943 292.653L413.528 294.648C419.449 281.042 422.705 267.335 423.228 253.551L418.232 253.361ZM408.943 292.653L411.443 288.323L352.974 254.565L350.474 258.896L347.974 263.226L406.443 296.983L408.943 292.653ZM350.474 258.896L355.161 260.635C357.341 254.763 358.531 248.936 358.661 243.174L353.662 243.061L348.664 242.948C348.561 247.471 347.626 252.2 345.786 257.156L350.474 258.896ZM353.662 243.061L358.658 243.266C358.892 237.578 358.112 232.131 356.28 226.969L351.568 228.641L346.856 230.313C348.235 234.199 348.851 238.365 348.666 242.855L353.662 243.061ZM351.568 228.641L356.28 226.969C354.447 221.803 351.61 217.083 347.83 212.819L344.089 216.137L340.348 219.454C343.329 222.815 345.478 226.432 346.856 230.313L351.568 228.641ZM344.089 216.137L347.918 212.921C344.257 208.561 339.655 204.826 334.202 201.678L331.702 206.008L329.202 210.338C333.798 212.991 337.453 216.009 340.26 219.352L344.089 216.137ZM331.702 206.008L334.202 201.678C324.102 195.847 313.862 193.147 303.586 193.945L303.973 198.93L304.36 203.915C312.265 203.301 320.511 205.32 329.202 210.338L331.702 206.008ZM303.973 198.93L303.553 193.947C293.405 194.804 283.846 198.968 274.92 206.1L278.042 210.006L281.163 213.912C288.818 207.795 296.547 204.574 304.394 203.912L303.973 198.93ZM278.042 210.006L274.935 206.089C266.068 213.12 258.053 223.027 250.802 235.585L255.132 238.085L259.462 240.585C266.284 228.77 273.541 219.957 281.148 213.924L278.042 210.006ZM255.132 238.085L250.802 235.585C243.609 248.044 239.025 259.849 237.272 270.965L242.211 271.744L247.15 272.523C248.66 262.949 252.69 252.314 259.462 240.585L255.132 238.085ZM242.211 271.744L237.265 271.013C235.603 282.242 236.867 292.583 241.293 301.839L245.804 299.681L250.315 297.524C246.873 290.328 245.741 282.046 247.157 272.476L242.211 271.744ZM245.804 299.681L241.293 301.839C245.74 311.136 253.198 318.655 263.299 324.486L265.799 320.156L268.299 315.826C259.608 310.808 253.736 304.677 250.315 297.524L245.804 299.681ZM265.799 320.156L263.299 324.486C268.723 327.618 274.197 329.774 279.714 330.864L280.683 325.959L281.652 321.053C277.371 320.208 272.923 318.495 268.299 315.826L265.799 320.156ZM280.683 325.959L279.714 330.864C285.207 331.949 290.654 332.011 296.02 331.02L295.112 326.103L294.205 321.186C290.13 321.938 285.957 321.904 281.652 321.053L280.683 325.959ZM295.112 326.103L296.103 331.004C301.474 329.918 306.541 327.894 311.281 324.957L308.647 320.707L306.014 316.456C302.256 318.785 298.299 320.358 294.122 321.202L295.112 326.103ZM308.647 320.707L311.244 324.979C316.128 322.011 320.578 318.173 324.606 313.521L320.825 310.248L317.045 306.975C313.626 310.924 309.957 314.059 306.05 316.434L308.647 320.707ZM320.825 310.248L318.325 314.578L376.795 348.336L379.295 344.006L381.795 339.675L323.325 305.918L320.825 310.248ZM379.295 344.006L375.297 341.003C367.044 351.99 357.68 360.794 347.218 367.483L349.912 371.696L352.605 375.908C364.164 368.518 374.389 358.863 383.293 347.008L379.295 344.006ZM349.912 371.696L347.234 367.473C336.816 374.078 325.643 378.449 313.686 380.608L314.574 385.529L315.463 390.449C328.709 388.057 341.094 383.206 352.589 375.918L349.912 371.696ZM314.574 385.529L313.686 380.608C301.725 382.768 289.331 382.654 276.472 380.222L275.543 385.135L274.614 390.048C288.593 392.692 302.221 392.84 315.463 390.449L314.574 385.529ZM275.543 385.135L276.496 380.227C263.836 377.768 251.067 372.859 238.179 365.418L235.679 369.748L233.179 374.078C246.898 381.999 260.704 387.347 274.59 390.043L275.543 385.135Z" fill="white"/>
<path d="M72.8125 553V407.492H182.09V441.867H113.438V467.648H178.184V500.656H113.438V553H72.8125Z" fill="white"/>
<path d="M203.906 553V407.492H244.531V518.625H307.227V553H203.906Z" fill="white"/>
<path d="M505.449 553L466.875 407.492H511.016L522.637 463.938C524.134 471.034 525.534 478.163 526.836 485.324C528.138 492.421 529.408 499.517 530.645 506.613C531.947 513.71 533.184 520.839 534.355 528H524.98C526.348 520.839 527.715 513.71 529.082 506.613C530.449 499.517 531.849 492.421 533.281 485.324C534.779 478.163 536.341 471.034 537.969 463.938L550.859 407.492H590.312L603.203 463.938C604.831 471.034 606.361 478.163 607.793 485.324C609.29 492.421 610.723 499.517 612.09 506.613C613.457 513.71 614.824 520.839 616.191 528H606.719C607.956 520.839 609.193 513.71 610.43 506.613C611.667 499.517 612.936 492.421 614.238 485.324C615.605 478.163 617.005 471.034 618.438 463.938L630.156 407.492H674.297L635.723 553H591.094L574.59 485.812C573.353 480.604 571.986 474.224 570.488 466.672C569.056 459.12 567.103 449.875 564.629 438.938H576.543C574.069 449.875 572.116 459.12 570.684 466.672C569.251 474.224 567.884 480.604 566.582 485.812L550.078 553H505.449Z" fill="white"/>
<path d="M483.703 209.666V377H436.984V209.666H483.703Z" fill="white"/>
<path d="M572.033 377H526.213V338.367H569.787C578.921 338.367 586.408 336.757 592.248 333.538C598.088 330.244 602.43 325.265 605.275 318.602C608.12 311.938 609.543 303.553 609.543 293.445C609.543 283.188 608.083 274.728 605.163 268.064C602.243 261.401 597.751 256.46 591.687 253.24C585.622 249.946 577.873 248.299 568.439 248.299H525.539V209.666H571.359C588.579 209.666 603.591 213.11 616.394 219.998C629.196 226.886 639.117 236.619 646.154 249.197C653.192 261.701 656.711 276.45 656.711 293.445C656.711 310.366 653.229 325.078 646.267 337.581C639.304 350.084 629.496 359.78 616.843 366.668C604.19 373.556 589.253 377 572.033 377ZM553.391 209.666V377H506.672V209.666H553.391Z" fill="white"/>
<path d="M73 377L129.152 209.666H192.043L248.757 377H196.198L177.443 312.088C173.4 298.012 169.47 284.124 165.651 270.423C161.833 256.647 158.127 242.347 154.533 227.522H167.111C163.368 242.347 159.549 256.647 155.656 270.423C151.763 284.124 147.72 298.012 143.527 312.088L124.099 377H73ZM114.89 349.485V313.548H206.979V349.485H114.89Z" fill="white"/>
<path d="M359.377 556.276C316.031 512.37 349.389 451.302 397.83 376.843C457.658 469.832 471.667 512.789 431.737 558.946C415.558 569.715 408.854 571.214 397.83 572.03C380.203 569.627 368.814 565.835 359.377 556.276Z" fill="#37946E"/>
<path d="M396.986 574.986C431.176 574.986 459 541.515 459 500.375C459 475.972 442.045 445.109 423.721 415.413C410.007 393.193 400.491 371.974 400.403 371.755C399.916 370.678 398.856 369.985 397.677 370C396.499 370 395.438 370.708 394.982 371.799C394.879 372.035 384.7 395.509 368.777 420.176C343.838 458.806 335 479.79 335 500.389C335 541.526 362.811 575 397.014 575L396.986 574.986ZM373.742 423.393C385.128 405.758 393.642 388.698 397.723 380.029C401.553 387.991 409.109 403.016 418.67 418.527C435.683 446.101 453.065 477.391 453.065 500.379C453.065 538.243 427.905 569.045 396.987 569.045C366.068 569.045 340.909 538.242 340.909 500.379C340.909 481.077 349.496 460.936 373.742 423.393ZM362.616 513.045C362.425 511.423 363.603 509.948 365.224 509.756C366.844 509.565 368.317 510.744 368.509 512.366C370.041 525.814 381.928 540.942 397.203 542.063C398.838 542.181 400.061 543.611 399.943 545.233C399.825 546.796 398.529 547.99 396.997 547.99C396.923 547.99 396.85 547.99 396.776 547.976C378.57 546.649 364.428 528.822 362.631 513.03L362.616 513.045Z" fill="white"/>
<path d="M359.377 556.276C316.031 512.37 349.389 451.302 397.83 376.843C457.658 469.832 471.667 512.789 431.737 558.946C415.558 569.715 408.854 571.214 397.83 572.03C380.203 569.627 368.814 565.835 359.377 556.276Z" stroke="white" stroke-width="4"/>
<path d="M396.986 574.986C431.176 574.986 459 541.515 459 500.375C459 475.972 442.045 445.109 423.721 415.413C410.007 393.193 400.491 371.974 400.403 371.755C399.916 370.678 398.856 369.985 397.677 370C396.499 370 395.438 370.708 394.982 371.799C394.879 372.035 384.7 395.509 368.777 420.176C343.838 458.806 335 479.79 335 500.389C335 541.526 362.811 575 397.014 575L396.986 574.986ZM373.742 423.393C385.128 405.758 393.642 388.698 397.723 380.029C401.553 387.991 409.109 403.016 418.67 418.527C435.683 446.101 453.065 477.391 453.065 500.379C453.065 538.243 427.905 569.045 396.987 569.045C366.068 569.045 340.909 538.242 340.909 500.379C340.909 481.077 349.496 460.936 373.742 423.393ZM362.616 513.045C362.425 511.423 363.603 509.948 365.224 509.756C366.844 509.565 368.317 510.744 368.509 512.366C370.041 525.814 381.928 540.942 397.203 542.063C398.838 542.181 400.061 543.611 399.943 545.233C399.825 546.796 398.529 547.99 396.997 547.99C396.923 547.99 396.85 547.99 396.776 547.976C378.57 546.649 364.428 528.822 362.631 513.03L362.616 513.045Z" stroke="white" stroke-width="4"/>
</g>
<defs>
<clipPath id="clip0_471_2">
<rect width="740" height="740" fill="white"/>
</clipPath>
</defs>
</svg>
