<svg width="740" height="740" viewBox="0 0 740 740" fill="none" xmlns="http://www.w3.org/2000/svg">
<g clip-path="url(#clip0_434_3)">
<rect width="740" height="740" fill="white"/>
<rect width="740" height="740" fill="#022140"/>
<path d="M72.8125 553V407.492H182.09V441.867H113.438V467.648H178.184V500.656H113.438V553H72.8125ZM203.906 553V407.492H244.531V518.625H307.227V553H203.906ZM505.449 553L466.875 407.492H511.016L522.637 463.938C524.134 471.034 525.534 478.163 526.836 485.324C528.138 492.421 529.408 499.517 530.645 506.613C531.947 513.71 533.184 520.839 534.355 528H524.98C526.348 520.839 527.715 513.71 529.082 506.613C530.449 499.517 531.849 492.421 533.281 485.324C534.779 478.163 536.341 471.034 537.969 463.938L550.859 407.492H590.312L603.203 463.938C604.831 471.034 606.361 478.163 607.793 485.324C609.29 492.421 610.723 499.517 612.09 506.613C613.457 513.71 614.824 520.839 616.191 528H606.719C607.956 520.839 609.193 513.71 610.43 506.613C611.667 499.517 612.936 492.421 614.238 485.324C615.605 478.163 617.005 471.034 618.438 463.938L630.156 407.492H674.297L635.723 553H591.094L574.59 485.812C573.353 480.604 571.986 474.224 570.488 466.672C569.056 459.12 567.103 449.875 564.629 438.938H576.543C574.069 449.875 572.116 459.12 570.684 466.672C569.251 474.224 567.884 480.604 566.582 485.812L550.078 553H505.449Z" fill="white"/>
<path d="M483.703 209.666V377H436.984V209.666H483.703ZM572.033 377H526.213V338.367H569.787C578.921 338.367 586.408 336.757 592.248 333.538C598.088 330.244 602.43 325.265 605.275 318.602C608.12 311.938 609.543 303.553 609.543 293.445C609.543 283.188 608.083 274.728 605.163 268.064C602.243 261.401 597.751 256.46 591.687 253.24C585.622 249.946 577.873 248.299 568.439 248.299H525.539V209.666H571.359C588.579 209.666 603.591 213.11 616.394 219.998C629.196 226.886 639.117 236.619 646.154 249.197C653.192 261.701 656.711 276.45 656.711 293.445C656.711 310.366 653.229 325.078 646.267 337.581C639.304 350.084 629.496 359.78 616.843 366.668C604.19 373.556 589.253 377 572.033 377ZM553.391 209.666V377H506.672V209.666H553.391Z" fill="white"/>
<path d="M246.225 245.78L383.462 246.914L383.683 247.86L353.834 262.911C357.567 277.34 357.691 287.817 353.194 296.427C348.664 305.1 339.505 311.761 324.997 318.694L324.974 318.705L324.951 318.713C309.876 324.159 292.244 318.353 277.337 305.106C262.418 291.848 250.143 271.075 245.729 246.369L245.623 245.776L246.225 245.78Z" fill="#37946E" stroke="#37946E"/>
<path d="M304.941 385.622L305.073 390.621L305.086 390.62L304.941 385.622ZM247.712 370.288L245.149 374.581L245.16 374.588L247.712 370.288ZM195.371 195.841L199.621 198.474L199.627 198.465L195.371 195.841ZM318.529 138.132L317.614 143.047L317.627 143.05L317.64 143.052L318.529 138.132ZM353.947 152.104L351.254 156.317L351.269 156.327L351.284 156.337L353.947 152.104ZM383.33 179.795L385.83 184.125L390.68 181.324L387.35 176.822L383.33 179.795ZM324.861 213.552L321.01 216.741L323.704 219.993L327.361 217.882L324.861 213.552ZM312.741 202.873L310.066 207.097L310.105 207.122L310.144 207.146L312.741 202.873ZM284.638 197.702L285.507 202.626L285.574 202.614L285.64 202.6L284.638 197.702ZM249.678 223.84L245.167 221.682L245.16 221.698L245.153 221.713L249.678 223.84ZM246.305 251.836L251.251 251.104L251.25 251.095L251.249 251.085L246.305 251.836ZM281.857 313.735L278.713 317.622L278.731 317.637L278.75 317.652L281.857 313.735ZM355.383 295.1L360.095 296.772L360.109 296.732L360.122 296.693L355.383 295.1ZM357.477 280.68L352.479 280.793L352.479 280.815L352.48 280.836L357.477 280.68ZM354.509 264.904L352.009 260.574L348.432 262.639L349.785 266.542L354.509 264.904ZM412.978 231.147L417.578 229.186L415.365 223.996L410.478 226.817L412.978 231.147ZM422.267 270.439L427.263 270.232L427.262 270.222L427.262 270.213L422.267 270.439ZM396.722 341.564L400.496 344.843L400.504 344.834L400.512 344.825L396.722 341.564ZM363.464 368.393L360.964 364.063C342.736 374.587 324.031 380.068 304.796 380.624L304.941 385.622L305.086 390.62C326.112 390.012 346.422 384.006 365.964 372.724L363.464 368.393ZM304.941 385.622L304.809 380.624C285.764 381.127 267.612 376.285 250.264 365.988L247.712 370.288L245.16 374.588C264.043 385.795 284.044 391.176 305.073 390.621L304.941 385.622ZM247.712 370.288L250.275 365.995C233.002 355.684 217.835 339.477 204.888 317.053L200.558 319.553L196.228 322.053C209.815 345.585 226.084 363.201 245.149 374.581L247.712 370.288ZM200.558 319.553L204.888 317.053C191.83 294.436 185.328 273.105 185.036 252.997L180.036 253.07L175.037 253.143C175.359 275.35 182.538 298.341 196.228 322.053L200.558 319.553ZM180.036 253.07L185.036 252.997C184.741 232.737 189.624 214.609 199.621 198.474L195.371 195.841L191.12 193.208C180.057 211.063 174.716 231.089 175.037 253.143L180.036 253.07ZM195.371 195.841L199.627 198.465C209.726 182.086 223.824 168.627 242.053 158.103L239.553 153.773L237.053 149.443C217.511 160.725 202.155 175.312 191.115 193.217L195.371 195.841ZM239.553 153.773L242.053 158.103C254.929 150.669 267.764 145.779 280.566 143.358L279.637 138.445L278.708 133.532C264.671 136.187 250.783 141.516 237.053 149.443L239.553 153.773ZM279.637 138.445L280.566 143.358C293.421 140.927 305.758 140.84 317.614 143.047L318.529 138.132L319.444 133.216C306.283 130.765 292.692 130.887 278.708 133.532L279.637 138.445ZM318.529 138.132L317.64 143.052C329.586 145.21 340.781 149.622 351.254 156.317L353.947 152.104L356.64 147.892C345.092 140.508 332.674 135.605 319.417 133.211L318.529 138.132ZM353.947 152.104L351.284 156.337C361.816 162.963 371.162 171.75 379.31 182.767L383.33 179.795L387.35 176.822C378.527 164.891 368.284 155.218 356.609 147.872L353.947 152.104ZM383.33 179.795L380.83 175.464L322.361 209.222L324.861 213.552L327.361 217.882L385.83 184.125L383.33 179.795ZM324.861 213.552L328.711 210.362C324.716 205.539 320.264 201.594 315.339 198.601L312.741 202.873L310.144 207.146C314.01 209.496 317.638 212.67 321.01 216.741L324.861 213.552ZM312.741 202.873L315.417 198.649C310.608 195.603 305.501 193.555 300.115 192.56L299.207 197.477L298.299 202.394C302.354 203.143 306.269 204.692 310.066 207.097L312.741 202.873ZM299.207 197.477L300.115 192.56C294.724 191.565 289.218 191.661 283.635 192.803L284.638 197.702L285.64 202.6C290.042 201.7 294.248 201.646 298.299 202.394L299.207 197.477ZM284.638 197.702L283.768 192.778C278.161 193.769 272.625 195.887 267.173 199.035L269.673 203.365L272.173 207.695C276.768 205.042 281.209 203.385 285.507 202.626L284.638 197.702ZM269.673 203.365L267.173 199.035C257.072 204.866 249.614 212.385 245.167 221.682L249.678 223.84L254.189 225.997C257.61 218.844 263.482 212.713 272.173 207.695L269.673 203.365ZM249.678 223.84L245.153 221.713C240.821 230.929 239.647 241.29 241.362 252.586L246.305 251.836L251.249 251.085C249.778 241.397 250.853 233.094 254.203 225.967L249.678 223.84ZM246.305 251.836L241.359 252.567C243.015 263.761 247.587 275.657 254.837 288.215L259.167 285.715L263.497 283.215C256.676 271.399 252.672 260.708 251.251 251.104L246.305 251.836ZM259.167 285.715L254.837 288.215C262.03 300.674 269.962 310.546 278.713 317.622L281.857 313.735L285.001 309.847C277.464 303.752 270.269 294.944 263.497 283.215L259.167 285.715ZM281.857 313.735L278.75 317.652C287.644 324.706 297.232 328.782 307.46 329.576L307.847 324.591L308.234 319.606C300.282 318.989 292.543 315.828 284.963 309.817L281.857 313.735ZM307.847 324.591L307.46 329.576C317.736 330.374 327.976 327.674 338.076 321.843L335.576 317.513L333.076 313.183C324.385 318.2 316.139 320.22 308.234 319.606L307.847 324.591ZM335.576 317.513L338.076 321.843C343.5 318.711 348.105 315.048 351.807 310.816L348.043 307.524L344.28 304.232C341.407 307.517 337.7 310.513 333.076 313.183L335.576 317.513ZM348.043 307.524L351.807 310.816C355.493 306.601 358.27 301.915 360.095 296.772L355.383 295.1L350.671 293.428C349.285 297.333 347.169 300.929 344.28 304.232L348.043 307.524ZM355.383 295.1L360.122 296.693C361.868 291.498 362.648 286.098 362.475 280.525L357.477 280.68L352.48 280.836C352.617 285.254 352.001 289.468 350.644 293.507L355.383 295.1ZM357.477 280.68L362.476 280.567C362.347 274.854 361.248 269.081 359.233 263.267L354.509 264.904L349.785 266.542C351.495 271.477 352.375 276.222 352.479 280.793L357.477 280.68ZM354.509 264.904L357.009 269.235L415.478 235.477L412.978 231.147L410.478 226.817L352.009 260.574L354.509 264.904ZM412.978 231.147L408.379 233.108C413.768 245.748 416.711 258.26 417.272 270.665L422.267 270.439L427.262 270.213C426.641 256.507 423.392 242.824 417.578 229.186L412.978 231.147ZM422.267 270.439L417.271 270.646C417.782 282.971 415.981 294.833 411.873 306.268L416.578 307.958L421.284 309.649C425.835 296.982 427.827 283.83 427.263 270.232L422.267 270.439ZM416.578 307.958L411.873 306.268C407.763 317.706 401.467 328.382 392.932 338.303L396.722 341.564L400.512 344.825C409.791 334.04 416.734 322.312 421.284 309.649L416.578 307.958ZM396.722 341.564L392.947 338.284C384.488 348.019 373.852 356.623 360.964 364.063L363.464 368.393L365.964 372.724C379.683 364.803 391.218 355.52 400.496 344.843L396.722 341.564Z" fill="white"/>
<path d="M74 377L130.152 209.666H193.043L249.757 377H197.198L178.443 312.088C174.4 298.012 170.47 284.124 166.651 270.423C162.833 256.647 159.127 242.347 155.533 227.522H168.111C164.368 242.347 160.549 256.647 156.656 270.423C152.763 284.124 148.72 298.012 144.527 312.088L125.099 377H74ZM115.89 349.485V313.548H207.979V349.485H115.89Z" fill="white"/>
<path d="M397.771 368.813C401.427 376.545 409.268 392.426 419.39 409.149L420.76 411.396C430.486 427.213 439.721 443.141 446.521 458.271C453.353 473.475 457.5 487.394 457.5 499.278C457.5 541.206 429.418 573.485 396.985 573.485L396.981 573.499C364.549 573.477 336.5 541.205 336.5 499.294C336.5 479.666 344.531 459.136 369.147 420.386L371.581 416.578C380.189 403.196 387.23 390.162 392.129 380.453C394.551 375.653 396.455 371.654 397.771 368.813ZM395.655 364.231C395.638 364.198 395.622 364.166 395.606 364.132L395.609 364.13C395.623 364.161 395.639 364.194 395.655 364.231Z" stroke="white" stroke-width="11"/>
<mask id="path-8-inside-1_434_3" fill="white">
<path d="M396.986 574.986C431.176 574.986 459 541.515 459 500.375C459 475.972 442.045 445.109 423.721 415.413C410.007 393.193 400.491 371.974 400.403 371.755C399.916 370.678 398.856 369.985 397.677 370C396.499 370 395.438 370.708 394.982 371.799C394.879 372.035 384.7 395.509 368.777 420.176C343.838 458.806 335 479.79 335 500.389C335 541.526 362.811 575 397.014 575L396.986 574.986ZM373.742 423.393C385.128 405.758 393.642 388.698 397.723 380.029C401.553 387.991 409.109 403.016 418.669 418.527C435.683 446.101 453.065 477.391 453.065 500.379C453.065 538.243 427.905 569.045 396.987 569.045C366.068 569.045 340.909 538.242 340.909 500.379C340.909 481.077 349.496 460.936 373.742 423.393ZM356.413 519.248C356.222 517.626 357.4 516.152 359.02 515.96C360.641 515.768 362.114 516.948 362.305 518.57C363.837 532.017 375.725 547.146 391 548.266C392.635 548.384 393.858 549.814 393.74 551.436C393.622 552.999 392.326 554.194 390.794 554.194C390.72 554.194 390.646 554.194 390.573 554.179C372.366 552.852 358.225 535.025 356.428 519.233L356.413 519.248Z"/>
</mask>
<path d="M396.986 574.986C431.176 574.986 459 541.515 459 500.375C459 475.972 442.045 445.109 423.721 415.413C410.007 393.193 400.491 371.974 400.403 371.755C399.916 370.678 398.856 369.985 397.677 370C396.499 370 395.438 370.708 394.982 371.799C394.879 372.035 384.7 395.509 368.777 420.176C343.838 458.806 335 479.79 335 500.389C335 541.526 362.811 575 397.014 575L396.986 574.986ZM373.742 423.393C385.128 405.758 393.642 388.698 397.723 380.029C401.553 387.991 409.109 403.016 418.669 418.527C435.683 446.101 453.065 477.391 453.065 500.379C453.065 538.243 427.905 569.045 396.987 569.045C366.068 569.045 340.909 538.242 340.909 500.379C340.909 481.077 349.496 460.936 373.742 423.393ZM356.413 519.248C356.222 517.626 357.4 516.152 359.02 515.96C360.641 515.768 362.114 516.948 362.305 518.57C363.837 532.017 375.725 547.146 391 548.266C392.635 548.384 393.858 549.814 393.74 551.436C393.622 552.999 392.326 554.194 390.794 554.194C390.72 554.194 390.646 554.194 390.573 554.179C372.366 552.852 358.225 535.025 356.428 519.233L356.413 519.248Z" fill="white"/>
<path d="M396.986 574.986V556.986L388.725 590.978L396.986 574.986ZM423.721 415.413L439.039 405.961L439.038 405.96L423.721 415.413ZM400.403 371.755L417.098 365.026L416.959 364.683L416.807 364.346L400.403 371.755ZM397.677 370V388H397.79L397.903 387.999L397.677 370ZM394.982 371.799L411.475 379.008L411.532 378.878L411.586 378.748L394.982 371.799ZM368.777 420.176L383.899 429.939L383.899 429.938L368.777 420.176ZM397.014 575V593L405.275 559.008L397.014 575ZM373.742 423.393L388.863 433.158L388.864 433.157L373.742 423.393ZM397.723 380.029L413.944 372.227L397.547 338.137L381.437 372.363L397.723 380.029ZM418.669 418.527L403.346 427.972L403.351 427.979L418.669 418.527ZM356.413 519.248L338.537 521.358L342.867 558.03L369.087 532.029L356.413 519.248ZM359.02 515.96L361.135 533.835L361.135 533.835L359.02 515.96ZM362.305 518.57L380.19 516.532L380.185 516.496L380.181 516.459L362.305 518.57ZM391 548.266L389.683 566.218L389.694 566.219L389.705 566.22L391 548.266ZM393.74 551.436L411.689 552.79L411.691 552.765L411.693 552.741L393.74 551.436ZM390.573 554.179L394.106 536.529L393.003 536.308L391.881 536.227L390.573 554.179ZM356.428 519.233L374.312 517.198L370.115 480.312L343.754 506.452L356.428 519.233ZM396.986 574.986V592.986C444.089 592.986 477 548.197 477 500.375H459H441C441 534.832 418.262 556.986 396.986 556.986V574.986ZM459 500.375H477C477 484.395 471.558 467.818 464.641 452.479C457.615 436.899 448.29 420.953 439.039 405.961L423.721 415.413L408.402 424.866C417.476 439.57 425.791 453.902 431.824 467.279C437.964 480.896 441 491.951 441 500.375H459ZM423.721 415.413L439.038 405.96C425.854 384.597 416.8 364.289 417.098 365.026L400.403 371.755L383.708 378.484C384.181 379.659 394.16 401.788 408.403 424.867L423.721 415.413ZM400.403 371.755L416.807 364.346C413.458 356.929 405.983 351.895 397.452 352.002L397.677 370L397.903 387.999C391.729 388.076 386.375 384.428 383.998 379.163L400.403 371.755ZM397.677 370V352C389.207 352 381.621 357.098 378.377 364.85L394.982 371.799L411.586 378.748C409.255 384.318 403.791 388 397.677 388V370ZM394.982 371.799L378.488 364.59C378.478 364.613 378.336 364.942 378.053 365.574C377.765 366.215 377.332 367.172 376.76 368.401C375.616 370.862 373.925 374.406 371.753 378.694C367.394 387.302 361.178 398.757 353.654 410.414L368.777 420.176L383.899 429.938C392.298 416.927 399.133 404.312 403.87 394.958C406.247 390.265 408.114 386.354 409.406 383.576C410.052 382.186 410.555 381.078 410.906 380.294C411.081 379.902 411.219 379.591 411.318 379.367C411.416 379.144 411.482 378.993 411.475 379.008L394.982 371.799ZM368.777 420.176L353.654 410.413C328.641 449.159 317 474.063 317 500.389H335H353C353 485.517 359.035 468.454 383.899 429.939L368.777 420.176ZM335 500.389H317C317 548.205 349.895 593 397.014 593V575V557C375.727 557 353 534.847 353 500.389H335ZM397.014 575L405.275 559.008L405.248 558.994L396.986 574.986L388.725 590.978L388.752 590.992L397.014 575ZM373.742 423.393L388.864 433.157C400.84 414.608 409.736 396.772 414.009 387.695L397.723 380.029L381.437 372.363C377.549 380.624 369.417 396.907 358.62 413.629L373.742 423.393ZM397.723 380.029L381.502 387.831C385.475 396.093 393.334 411.728 403.346 427.972L418.669 418.527L433.993 409.083C424.884 394.305 417.63 379.89 413.944 372.227L397.723 380.029ZM418.669 418.527L403.351 427.979C411.764 441.615 419.886 455.565 425.88 468.663C432.042 482.127 435.065 492.83 435.065 500.379H453.065H471.065C471.065 484.939 465.397 468.503 458.615 453.682C451.665 438.495 442.588 423.013 433.988 409.075L418.669 418.527ZM453.065 500.379H435.065C435.065 531.88 414.729 551.045 396.987 551.045V569.045V587.045C441.082 587.045 471.065 544.606 471.065 500.379H453.065ZM396.987 569.045V551.045C379.245 551.045 358.909 531.879 358.909 500.379H340.909H322.909C322.909 544.605 352.891 587.045 396.987 587.045V569.045ZM340.909 500.379H358.909C358.909 486.873 364.608 470.715 388.863 433.158L373.742 423.393L358.621 413.628C334.383 451.158 322.909 475.281 322.909 500.379H340.909ZM356.413 519.248L374.289 517.138C375.278 525.516 369.255 532.875 361.135 533.835L359.02 515.96L356.906 498.084C345.545 499.428 337.165 509.736 338.537 521.358L356.413 519.248ZM359.02 515.96L361.135 533.835C352.719 534.831 345.384 528.769 344.429 520.68L362.305 518.57L380.181 516.459C378.843 505.126 368.562 496.706 356.906 498.084L359.02 515.96ZM362.305 518.57L344.421 520.607C345.657 531.461 350.833 542.034 358.155 550.121C365.535 558.272 376.367 565.241 389.683 566.218L391 548.266L392.317 530.314C390.358 530.171 387.608 529.015 384.843 525.96C382.019 522.841 380.485 519.126 380.19 516.532L362.305 518.57ZM391 548.266L389.705 566.22C381.35 565.617 375.19 558.358 375.787 550.132L393.74 551.436L411.693 552.741C412.526 541.271 403.92 531.152 392.295 530.313L391 548.266ZM393.74 551.436L375.791 550.083C376.376 542.327 382.839 536.194 390.794 536.194V554.194V572.194C401.813 572.194 410.868 563.671 411.689 552.79L393.74 551.436ZM390.794 554.194V536.194C390.682 536.194 391.095 536.19 391.582 536.214C392.128 536.242 393.021 536.312 394.106 536.529L390.573 554.179L387.04 571.829C388.199 572.061 389.165 572.138 389.784 572.169C390.096 572.185 390.351 572.19 390.514 572.192C390.596 572.193 390.665 572.193 390.71 572.194C390.752 572.194 390.789 572.194 390.794 572.194V554.194ZM390.573 554.179L391.881 536.227C388.389 535.972 384.332 534.029 380.627 529.98C376.854 525.856 374.734 520.901 374.312 517.198L356.428 519.233L338.543 521.269C339.919 533.357 345.768 545.212 354.067 554.281C362.433 563.425 374.55 571.059 389.264 572.131L390.573 554.179ZM356.428 519.233L343.754 506.452L343.739 506.467L356.413 519.248L369.087 532.029L369.102 532.015L356.428 519.233Z" fill="white" mask="url(#path-8-inside-1_434_3)"/>
</g>
<defs>
<clipPath id="clip0_434_3">
<rect width="740" height="740" fill="white"/>
</clipPath>
</defs>
</svg>
