<svg width="1400" height="346" viewBox="0 0 1400 346" fill="none" xmlns="http://www.w3.org/2000/svg">
<g clip-path="url(#clip0_466_85)">
<path d="M1400 0H0V346H1400V0Z" fill="#0A0B16"/>
<path d="M409.397 276L354.488 89.818H410.851L436.306 204.364H437.76L467.942 89.818H512.306L542.488 204.727H543.942L569.397 89.818H625.76L570.851 276H522.488L490.851 172H489.397L457.76 276H409.397ZM752.306 89.818H802.851V209.091C802.851 223.273 799.457 235.545 792.669 245.909C785.942 256.212 776.548 264.182 764.488 269.818C752.427 275.394 738.427 278.182 722.488 278.182C706.427 278.182 692.366 275.394 680.306 269.818C668.245 264.182 658.851 256.212 652.124 245.909C645.457 235.545 642.124 223.273 642.124 209.091V89.818H692.669V204.727C692.669 210.485 693.942 215.636 696.488 220.182C699.033 224.667 702.548 228.182 707.033 230.727C711.579 233.273 716.73 234.545 722.488 234.545C728.306 234.545 733.457 233.273 737.942 230.727C742.427 228.182 745.942 224.667 748.488 220.182C751.033 215.636 752.306 210.485 752.306 204.727V89.818ZM1007.24 182.909C1007.24 203.636 1003.21 221.121 995.147 235.364C987.086 249.545 976.207 260.303 962.51 267.636C948.813 274.909 933.541 278.545 916.692 278.545C899.722 278.545 884.389 274.879 870.692 267.545C857.056 260.152 846.207 249.364 838.147 235.182C830.147 220.939 826.147 203.515 826.147 182.909C826.147 162.182 830.147 144.727 838.147 130.545C846.207 116.303 857.056 105.545 870.692 98.2725C884.389 90.9392 899.722 87.2725 916.692 87.2725C933.541 87.2725 948.813 90.9392 962.51 98.2725C976.207 105.545 987.086 116.303 995.147 130.545C1003.21 144.727 1007.24 162.182 1007.24 182.909ZM955.238 182.909C955.238 171.758 953.753 162.364 950.783 154.727C947.874 147.03 943.541 141.212 937.783 137.273C932.086 133.273 925.056 131.273 916.692 131.273C908.329 131.273 901.268 133.273 895.51 137.273C889.813 141.212 885.48 147.03 882.51 154.727C879.601 162.364 878.147 171.758 878.147 182.909C878.147 194.061 879.601 203.485 882.51 211.182C885.48 218.818 889.813 224.636 895.51 228.636C901.268 232.576 908.329 234.545 916.692 234.545C925.056 234.545 932.086 232.576 937.783 228.636C943.541 224.636 947.874 218.818 950.783 211.182C953.753 203.485 955.238 194.061 955.238 182.909ZM1016.78 130.545V89.818H1178.6V130.545H1122.6V276H1072.78V130.545H1016.78ZM1197.62 276V89.818H1331.81V130.545H1248.17V162.545H1324.9V203.273H1248.17V235.273H1331.44V276H1197.62Z" fill="white"/>
<g clip-path="url(#clip1_466_85)">
<circle cx="181" cy="173" r="118.5" fill="#005784" stroke="white" stroke-width="5"/>
<path d="M254.691 108.27V108.28H254.956V113.921H223.627V152.39H268.317V158.03H223.627V196.693H272.187V202.333H223.589V204.882C223.589 211.269 222.088 216.886 219.138 221.804L219.136 221.808C216.212 226.701 212.077 230.583 206.66 233.458C201.289 236.276 194.908 237.73 187.438 237.73C180.198 237.73 173.98 236.364 168.714 233.714L168.208 233.453C162.796 230.579 158.646 226.697 155.69 221.804C152.773 216.887 151.288 211.27 151.288 204.882V159.59L146.379 158.923L125.037 235.982H116.416L90.5918 141.54H97.6123L117.913 220.652L118.395 222.531H123.236L123.725 220.663L144.406 141.54H158.33V203.911C158.33 209.146 159.486 213.899 161.857 218.104L161.861 218.111C164.236 222.286 167.624 225.571 171.96 227.952L171.981 227.964C176.399 230.334 181.583 231.466 187.438 231.466C193.295 231.466 198.478 230.335 202.896 227.964L202.91 227.956C207.282 225.575 210.677 222.286 213.023 218.098L213.022 218.097C215.392 213.894 216.547 209.143 216.547 203.911V141.54H216.548V113.91H185.4V108.27H254.691Z" fill="white" stroke="white" stroke-width="5"/>
<path d="M187.143 162.081C188.447 164.736 190.518 168.738 193.04 172.843C195.86 177.433 198.517 182.023 200.467 186.366C202.431 190.742 203.575 194.651 203.575 197.917C203.575 209.776 195.671 218.587 186.906 218.587L186.905 218.59C178.14 218.583 170.246 209.776 170.246 197.922C170.246 192.317 172.592 186.344 180.29 174.364C182.811 170.441 184.871 166.623 186.303 163.782C186.612 163.168 186.892 162.597 187.143 162.081Z" fill="black"/>
<path d="M187.143 162.081C188.447 164.736 190.518 168.738 193.04 172.843C195.86 177.433 198.517 182.023 200.467 186.366C202.431 190.742 203.575 194.651 203.575 197.917C203.575 209.776 195.671 218.587 186.906 218.587L186.905 218.59C178.14 218.583 170.246 209.776 170.246 197.922C170.246 192.317 172.592 186.344 180.29 174.364C182.811 170.441 184.871 166.623 186.303 163.782C186.612 163.168 186.892 162.597 187.143 162.081Z" fill="#3EA34B"/>
<path d="M187.143 162.081C188.447 164.736 190.518 168.738 193.04 172.843C195.86 177.433 198.517 182.023 200.467 186.366C202.431 190.742 203.575 194.651 203.575 197.917C203.575 209.776 195.671 218.587 186.906 218.587L186.905 218.59C178.14 218.583 170.246 209.776 170.246 197.922C170.246 192.317 172.592 186.344 180.29 174.364C182.811 170.441 184.871 166.623 186.303 163.782C186.612 163.168 186.892 162.597 187.143 162.081Z" stroke="white" stroke-width="5"/>
<mask id="path-6-inside-1_466_85" fill="white">
<path d="M175.154 203.702C175.099 203.231 175.44 202.803 175.91 202.747C176.379 202.692 176.806 203.034 176.861 203.505C177.305 207.408 180.748 211.799 185.173 212.125C185.646 212.159 186 212.574 185.966 213.045C185.932 213.498 185.557 213.845 185.113 213.845C185.092 213.845 185.07 213.845 185.049 213.841C179.775 213.456 175.679 208.281 175.159 203.697L175.154 203.702Z"/>
</mask>
<path d="M175.154 203.702C175.099 203.231 175.44 202.803 175.91 202.747C176.379 202.692 176.806 203.034 176.861 203.505C177.305 207.408 180.748 211.799 185.173 212.125C185.646 212.159 186 212.574 185.966 213.045C185.932 213.498 185.557 213.845 185.113 213.845C185.092 213.845 185.07 213.845 185.049 213.841C179.775 213.456 175.679 208.281 175.159 203.697L175.154 203.702Z" fill="white"/>
<path d="M175.154 203.702L170.189 204.287L171.39 214.486L178.678 207.249L175.154 203.702ZM175.91 202.747L176.498 207.712L176.498 207.712L175.91 202.747ZM176.861 203.505L181.829 202.94L181.828 202.93L181.827 202.92L176.861 203.505ZM185.173 212.125L184.806 217.111L184.812 217.112L185.173 212.125ZM185.966 213.045L190.952 213.42L190.953 213.406L185.966 213.045ZM185.049 213.841L186.032 208.939L185.725 208.877L185.413 208.854L185.049 213.841ZM175.159 203.697L180.127 203.133L178.962 192.874L171.635 200.15L175.159 203.697ZM175.154 203.702L180.12 203.117C180.391 205.413 178.743 207.446 176.498 207.712L175.91 202.747L175.321 197.782C172.137 198.159 169.807 201.048 170.189 204.287L175.154 203.702ZM175.91 202.747L176.498 207.712C174.169 207.988 172.157 206.308 171.895 204.09L176.861 203.505L181.827 202.92C181.454 199.76 178.589 197.395 175.321 197.782L175.91 202.747ZM176.861 203.505L171.893 204.069C172.245 207.166 173.721 210.191 175.814 212.508C177.923 214.843 181.013 216.832 184.806 217.111L185.173 212.125L185.539 207.138C184.908 207.092 184.064 206.723 183.234 205.805C182.389 204.869 181.921 203.747 181.829 202.94L176.861 203.505ZM185.173 212.125L184.812 217.112C182.502 216.945 180.816 214.937 180.979 212.683L185.966 213.045L190.953 213.406C191.185 210.211 188.791 207.373 185.533 207.138L185.173 212.125ZM185.966 213.045L180.98 212.67C181.14 210.543 182.912 208.845 185.113 208.845V213.845V218.845C188.201 218.845 190.724 216.454 190.952 213.42L185.966 213.045ZM185.113 213.845V208.845C185.081 208.845 185.196 208.844 185.331 208.851C185.483 208.858 185.731 208.878 186.032 208.939L185.049 213.841L184.065 218.743C184.388 218.808 184.658 218.83 184.831 218.838C184.918 218.843 184.989 218.844 185.034 218.845C185.076 218.845 185.113 218.845 185.113 218.845V213.845ZM185.049 213.841L185.413 208.854C184.338 208.776 183.116 208.179 182.014 206.972C180.893 205.745 180.255 204.263 180.127 203.133L175.159 203.697L170.191 204.262C170.583 207.716 172.253 211.113 174.629 213.715C177.023 216.337 180.486 218.521 184.685 218.828L185.049 213.841ZM175.159 203.697L171.635 200.15L171.631 200.154L175.154 203.702L178.678 207.249L178.682 207.245L175.159 203.697Z" fill="white" mask="url(#path-6-inside-1_466_85)"/>
</g>
</g>
<defs>
<clipPath id="clip0_466_85">
<rect width="1400" height="346" fill="white"/>
</clipPath>
<clipPath id="clip1_466_85">
<rect width="242" height="242" fill="white" transform="translate(60 52)"/>
</clipPath>
</defs>
</svg>
